<?xml version="1.0" encoding="UTF-8"?>
<svg width="40px" height="40px" viewBox="0 0 40 40" version="1.1" xmlns="http://www.w3.org/2000/svg" xmlns:xlink="http://www.w3.org/1999/xlink">
    <!-- Generator: Sketch 59.1 (86144) - https://sketch.com -->
    <title>tw</title>
    <desc>Created with Sketch.</desc>
    <g id="Page-1" stroke="none" stroke-width="1" fill="none" fill-rule="evenodd">
        <g id="Orbit" transform="translate(-1208.000000, -6992.000000)">
            <g id="Group-5" transform="translate(0.000000, 5667.000000)">
                <g id="copyright" transform="translate(0.000000, 1295.000000)">
                    <g id="tw" transform="translate(1208.000000, 30.000000)">
                        <rect id="Rectangle" fill="#F3EFFF" x="0" y="0" width="40" height="40" rx="8"></rect>
                        <path d="M28.281194,15.9764025 C28.1249445,22.8805265 23.5937084,27.6833954 16.7187294,27.9835747 C13.906238,28.1336644 11.8749943,27.2331265 10,26.1824989 C12.0312438,26.4827371 14.6874856,25.7322888 16.0937313,24.5315127 C14.0624876,24.3814231 12.8124914,23.3307955 12.1874933,21.6798093 C12.8124914,21.829899 13.4374895,21.6798093 13.906238,21.6798093 C12.0312438,21.0794507 10.7812476,20.0288231 10.6249981,17.6273887 C11.0937466,17.927568 11.7187447,18.0776577 12.3437428,18.0776577 C10.9374971,17.3272094 10,14.475506 11.0937466,12.6744302 C13.1249904,14.7756853 15.6249828,16.5767611 19.6874703,16.8769404 C18.5937237,12.6744302 24.5312668,10.4230854 26.8750096,13.2747888 C27.9687562,13.1246991 28.7500038,12.6744302 29.5312514,12.3742509 C29.2187524,13.4248784 28.5937543,14.0252371 27.8125067,14.6255957 C28.5937543,14.475506 29.3750019,14.3254164 30,14.0252371 C29.8436892,14.7756853 29.0624416,15.3760439 28.281194,15.9764025 Z" id="Path" fill="#8E6DF3" fill-rule="nonzero"></path>
                    </g>
                </g>
            </g>
        </g>
    </g>
</svg>