<svg enable-background="new 0 0 17 17" height="17" viewBox="0 0 17 17" width="17" xmlns="http://www.w3.org/2000/svg"><path clip-rule="evenodd" d="m8.052 12.454-2.7-2.521c-.213-.198-.558-.198-.771 0l-4.581 4.268v.581c0 .542.475.983 1.055.983h14.765c.58 0 1.055-.441 1.055-.983v-.581l-4.581-4.269c-.214-.198-.559-.198-.771 0l-2.7 2.521c-.213.2-.558.2-.771.001zm5.739-3.918 2.699 2.521c.212.199.385.123.385-.168v-5.424c0-.292-.173-.367-.385-.168l-2.699 2.521c-.214.198-.214.519 0 .718zm-12.736-7.536c-.58 0-1.055.443-1.055.984v.177l8.011 7.504c.212.199.556.199.768 0l8.096-7.593v-.088c0-.541-.475-.984-1.055-.984zm-1.055 4.465v5.424c0 .291.173.367.385.168l2.699-2.521c.214-.199.214-.52 0-.719l-2.699-2.52c-.212-.199-.385-.124-.385.168z" fill="#fff" fill-rule="evenodd"/></svg>